<svg xmlns="http://www.w3.org/2000/svg" xmlns:xlink="http://www.w3.org/1999/xlink" width="500" height="796" viewBox="0 0 500 796">
  <defs>
    <clipPath id="clip-Taille_personnalisée_1">
      <rect width="500" height="796"/>
    </clipPath>
  </defs>
  <g id="Taille_personnalisée_1" data-name="Taille personnalisée – 1" clip-path="url(#clip-Taille_personnalisée_1)">
    <g id="Groupe_1" data-name="Groupe 1" transform="translate(0.001 74.351)">
      <path id="Path" d="M707.418,295.355a30.067,30.067,0,0,1-20.67-5.483,56.7,56.7,0,0,1-14.823-15.9,103.028,103.028,0,0,1-14.507-33.708,19.76,19.76,0,0,1-19.254,6.7c-11.468-2.574-18.34-15.956-16.111-27.5s11.7-20.7,22.508-25.319,22.844-5.4,34.6-5.371c7.752.017,15.648.379,22.93,3.037s13.95,7.957,16.538,15.262c1.622,4.582,1.568,9.651,3.412,14.147,3.346,8.162,12.029,12.619,20.177,16s17.006,6.816,21.811,14.214c5.426,8.354,3.86,20.022-2.12,27.983s-15.582,12.589-25.356,14.52-19.841,1.454-29.791.969" transform="translate(-402.597 -188.775)" fill="#fff"/>
      <path id="Path-2" data-name="Path" d="M425,448.972l32.112-13.925-17.425-35.862-25.933,15.177Z" transform="translate(-31.226 182.445)" fill="#737373"/>
      <path id="Path-3" data-name="Path" d="M419.742,330.436l31.014,63.081,54.725,111.34,56.429-27.116L499.625,331.9l-.168-18.358-.557-57.126Z" transform="translate(-144.758 117.1)" fill="#feac43"/>
      <path id="Path-4" data-name="Path" d="M546.937,424.131l32.978,11.726,11.726-38.108-29.313-6.594Z" transform="translate(-359.895 178.77)" fill="#737373"/>
      <path id="Path-5" data-name="Path" d="M724.721,389.994l99.668-28.582-29.308-19.787-76.955,24.185-34.8,8.351a17.194,17.194,0,0,0-11.673,23.763h0a17.2,17.2,0,0,0,23.955,8.034Z" transform="translate(-530.352 -118.908)" fill="#737373"/>
      <path id="Path-6" data-name="Path" d="M680.542,378.255l40.307,23.451c3.557-29.329-13.979-81.535-35.909-138.509h0a43.827,43.827,0,0,0-17.724,41.391Z" transform="translate(-422.413 -154.763)" fill="#feac43"/>
      <path id="Path-7" data-name="Path" d="M587.9,409.267l.841,30.082a17.349,17.349,0,0,0,21.829,16.269h0a17.349,17.349,0,0,0,11.287-23.976l-11.244-24.565-35.177-83.545-24.185,8.795Z" transform="translate(-156.084 -127.187)" fill="#737373"/>
      <circle id="Path-8" data-name="Path" cx="31.513" cy="31.513" r="31.513" transform="translate(236.509 15.779)" fill="#737373"/>
      <path id="Path-9" data-name="Path" d="M508.619,96.351l36.643-17.589L526.941,37.722,496.16,43.586Z" transform="translate(-239.497 17.266)" fill="#737373"/>
      <path id="Path-10" data-name="Path" d="M657.246,424.5,732,406.183l-15.01-137.6a24.205,24.205,0,0,0-26.248-21.479l-24.7,2.243-33.712,15.39-12.451,13.191,3.8,16.257c-3.543,33.483-.813,62.539,18.656,79.782Z" transform="translate(-364.674 -162.122)" fill="#feac43"/>
      <path id="Path-11" data-name="Path" d="M645.841,371.833l38.842-10.264-52.073-86.248a55.7,55.7,0,0,0-53.458-26.613h0l19.787,65.224C617.234,327.744,632.6,347.586,645.841,371.833Z" transform="translate(-257.998 -161.48)" fill="#feac43"/>
      <path id="Path-12" data-name="Path" d="M604.657,690.827l59.36,17.588C736.3,591.067,839.806,464.6,799.6,380.1l-14.665-34.449L708.711,369.1l-4.4,90.875-46.9,73.285Z" transform="translate(-419.081 -117.236)" fill="#feac43"/>
      <path id="Path-13" data-name="Path" d="M730.531,655.438l52.755-.518a19,19,0,0,0,18.878-19v-26.3a6.057,6.057,0,0,0-7.857-5.815c-9.528,3.055-17.33,2.037-23.219-3.5-3.533-3.32-3.939-3.986-8.137-1.572l-23.82,26.016-9.66.623a15.048,15.048,0,0,0-14.037,13.891h0a15.049,15.049,0,0,0,15.091,16.174Z" transform="translate(-574.083 -2.06)" fill="#fff"/>
      <path id="Path-14" data-name="Path" d="M589.831,688.086l36.937-37.669a19,19,0,0,0-.088-26.785l-18.6-18.6a6.057,6.057,0,0,0-9.668,1.444c-4.578,8.9-10.814,13.7-18.89,13.94-4.841.146-5.6-.034-6.865,4.642l1.555,35.238-6.394,7.27a15.049,15.049,0,0,0-.1,19.75h0a15.049,15.049,0,0,0,22.107.766Z" transform="translate(-183.593 0.658)" fill="#fff"/>
      <path id="Path-15" data-name="Path" d="M677.135,225.651a37.728,37.728,0,0,1-18.281,15.1c-5.354,2.061-12.146,2.574-16.164-1.514-2.911-2.966-3.491-7.531-3.077-11.665,1.289-12.907,10.99-24.146,23.026-28.982s25.931-3.779,37.943,1.117c11.334,4.62,22.1,14.083,22.706,26.307.313,6.264-1.955,13.161,1.407,18.456,2.532,3.988,7.423,5.608,11.8,7.373s9.086,4.551,9.983,9.19a10.282,10.282,0,0,1-3.017,8.766,23.8,23.8,0,0,1-8.1,5.081c-7.146,3.042-15.01,4.938-22.686,3.762s-15.1-5.85-18.1-13.011c-2.313-5.515-1.839-11.738-1.573-17.712s.187-12.336-3-17.4-10.6-7.891-15.363-4.279" transform="translate(-407.841 -185.717)" fill="#fff"/>
      <path id="Path-16" data-name="Path" d="M9.045,31.011H83.75a40.053,40.053,0,1,1,0,18.089H64.611v6.461a9.045,9.045,0,0,1-18.089,0V49.1H33.595V65.9a9.045,9.045,0,1,1-18.089,0V49.1H9.045a9.045,9.045,0,0,1,0-18.089Zm113.7,31.009a21.964,21.964,0,1,0-21.959-21.974,21.965,21.965,0,0,0,21.959,21.974Z" transform="translate(40.054 148.171) rotate(30)" fill="#fff"/>
    </g>
  </g>
</svg>
