<?xml version="1.0" encoding="UTF-8"?>
<!DOCTYPE svg
PUBLIC "-//W3C//DTD SVG 1.1//EN"
       "http://www.w3.org/Graphics/SVG/1.1/DTD/svg11.dtd">
<svg viewBox="139 39 1081 489" width="942px" height="450px" xmlns="http://www.w3.org/2000/svg" version="1.1">
   <line x1="918" y1="225" x2="908" y2="225" style="stroke:#c00;stroke-width:1;"/>
   <line x1="838" y1="84" x2="828" y2="84" style="stroke:#c00;stroke-width:1;"/>
   <line x1="908" y1="225" x2="838" y2="84" style="stroke:#c00;stroke-width:1;"/>
   <line x1="910,5" y1="225" x2="914,03553390593" y2="228,53553390593" style="stroke:#c00;stroke-width:2;"/>
   <line x1="910,5" y1="225" x2="914,03553390593" y2="221,46446609407" style="stroke:#c00;stroke-width:2;"/>
   <line x1="833" y1="84" x2="836,53553390593" y2="87,535533905933" style="stroke:#c00;stroke-width:2;"/>
   <line x1="833" y1="84" x2="836,53553390593" y2="80,464466094067" style="stroke:#c00;stroke-width:2;"/>
   <line x1="918" y1="245" x2="908" y2="245" style="stroke:#c00;stroke-width:1;"/>
   <line x1="838" y1="84" x2="828" y2="84" style="stroke:#c00;stroke-width:1;"/>
   <line x1="908" y1="245" x2="838" y2="84" style="stroke:#c00;stroke-width:1;"/>
   <line x1="910,5" y1="245" x2="914,03553390593" y2="248,53553390593" style="stroke:#c00;stroke-width:2;"/>
   <line x1="910,5" y1="245" x2="914,03553390593" y2="241,46446609407" style="stroke:#c00;stroke-width:2;"/>
   <line x1="833" y1="84" x2="836,53553390593" y2="87,535533905933" style="stroke:#c00;stroke-width:2;"/>
   <line x1="833" y1="84" x2="836,53553390593" y2="80,464466094067" style="stroke:#c00;stroke-width:2;"/>
   <line x1="680" y1="324" x2="670" y2="324" style="stroke:#c00;stroke-width:1;"/>
   <line x1="611" y1="222" x2="601" y2="222" style="stroke:#c00;stroke-width:1;"/>
   <line x1="670" y1="324" x2="611" y2="222" style="stroke:#c00;stroke-width:1;"/>
   <line x1="672,5" y1="324" x2="676,03553390593" y2="327,53553390593" style="stroke:#c00;stroke-width:2;"/>
   <line x1="672,5" y1="324" x2="676,03553390593" y2="320,46446609407" style="stroke:#c00;stroke-width:2;"/>
   <line x1="606" y1="222" x2="609,53553390593" y2="225,53553390593" style="stroke:#c00;stroke-width:2;"/>
   <line x1="606" y1="222" x2="609,53553390593" y2="218,46446609407" style="stroke:#c00;stroke-width:2;"/>
   <line x1="607" y1="106" x2="617" y2="106" style="stroke:#0b0;stroke-width:1;"/>
   <line x1="670" y1="84" x2="680" y2="84" style="stroke:#0b0;stroke-width:1;"/>
   <line x1="617" y1="106" x2="670" y2="84" style="stroke:#0b0;stroke-width:1;"/>
   <line x1="614,5" y1="106" x2="610,96446609407" y2="109,53553390593" style="stroke:#0b0;stroke-width:2;"/>
   <line x1="614,5" y1="106" x2="610,96446609407" y2="102,46446609407" style="stroke:#0b0;stroke-width:2;"/>
   <line x1="675" y1="84" x2="671,46446609407" y2="87,535533905933" style="stroke:#0b0;stroke-width:2;"/>
   <line x1="675" y1="84" x2="671,46446609407" y2="80,464466094067" style="stroke:#0b0;stroke-width:2;"/>
   <line x1="459" y1="86" x2="449" y2="86" style="stroke:#0bf;stroke-width:1;"/>
   <line x1="443" y1="222" x2="453" y2="222" style="stroke:#0bf;stroke-width:1;"/>
   <line x1="449" y1="86" x2="443" y2="222" style="stroke:#0bf;stroke-width:1;"/>
   <line x1="451,5" y1="86" x2="455,03553390593" y2="89,535533905933" style="stroke:#0bf;stroke-width:2;"/>
   <line x1="451,5" y1="86" x2="455,03553390593" y2="82,464466094067" style="stroke:#0bf;stroke-width:2;"/>
   <line x1="448" y1="222" x2="444,46446609407" y2="225,53553390593" style="stroke:#0bf;stroke-width:2;"/>
   <line x1="448" y1="222" x2="444,46446609407" y2="218,46446609407" style="stroke:#0bf;stroke-width:2;"/>
   <rect width="148" height="20" x="155" y="169" style="fill:#007;stroke:black;"/>
   <text width="148" height="20" x="160" y="183" style="fill:#fff;" font-family="Arial" font-size="16px"> contact</text>
   <rect width="148" height="20" x="155" y="189" style="fill:#aea;stroke:black;"/>
   <text width="148" height="20" x="160" y="203" style="fill:black;" font-family="Arial" font-size="16px">contact_id</text>
   <rect width="148" height="20" x="155" y="209" style="fill:none;stroke:black;"/>
   <text width="148" height="20" x="160" y="223" style="fill:black;" font-family="Arial" font-size="16px">contact_mail</text>
   <rect width="148" height="20" x="155" y="229" style="fill:none;stroke:black;"/>
   <text width="148" height="20" x="160" y="243" style="fill:black;" font-family="Arial" font-size="16px">contact_nom</text>
   <rect width="148" height="20" x="155" y="249" style="fill:none;stroke:black;"/>
   <text width="148" height="20" x="160" y="263" style="fill:black;" font-family="Arial" font-size="16px">contact_prenom</text>
   <rect width="148" height="20" x="155" y="269" style="fill:none;stroke:black;"/>
   <text width="148" height="20" x="160" y="283" style="fill:black;" font-family="Arial" font-size="16px">contact_message</text>
   <rect width="148" height="20" x="154" y="354" style="fill:#007;stroke:black;"/>
   <text width="148" height="20" x="159" y="368" style="fill:#fff;" font-family="Arial" font-size="16px"> don</text>
   <rect width="148" height="20" x="154" y="374" style="fill:#aea;stroke:black;"/>
   <text width="148" height="20" x="159" y="388" style="fill:black;" font-family="Arial" font-size="16px">id_don</text>
   <rect width="148" height="20" x="154" y="394" style="fill:none;stroke:black;"/>
   <text width="148" height="20" x="159" y="408" style="fill:black;" font-family="Arial" font-size="16px">mail_don</text>
   <rect width="148" height="20" x="154" y="414" style="fill:none;stroke:black;"/>
   <text width="148" height="20" x="159" y="428" style="fill:black;" font-family="Arial" font-size="16px">nom_don</text>
   <rect width="148" height="20" x="154" y="434" style="fill:none;stroke:black;"/>
   <text width="148" height="20" x="159" y="448" style="fill:black;" font-family="Arial" font-size="16px">prenom_don</text>
   <rect width="148" height="20" x="154" y="454" style="fill:none;stroke:black;"/>
   <text width="148" height="20" x="159" y="468" style="fill:black;" font-family="Arial" font-size="16px">message_don</text>
   <rect width="148" height="20" x="158" y="67" style="fill:#007;stroke:black;"/>
   <text width="148" height="20" x="163" y="81" style="fill:#fff;" font-family="Arial" font-size="16px"> maraude</text>
   <rect width="148" height="20" x="158" y="87" style="fill:#aea;stroke:black;"/>
   <text width="148" height="20" x="163" y="101" style="fill:black;" font-family="Arial" font-size="16px">id_maraude</text>
   <rect width="148" height="20" x="158" y="107" style="fill:none;stroke:black;"/>
   <text width="148" height="20" x="163" y="121" style="fill:black;" font-family="Arial" font-size="16px">date_maraude</text>
   <rect width="148" height="20" x="918" y="55" style="fill:#007;stroke:black;"/>
   <text width="148" height="20" x="923" y="69" style="fill:#fff;" font-family="Arial" font-size="16px"> repas</text>
   <rect width="148" height="20" x="918" y="75" style="fill:#aea;stroke:black;"/>
   <text width="148" height="20" x="923" y="89" style="fill:black;" font-family="Arial" font-size="16px">id_repas</text>
   <rect width="148" height="20" x="918" y="95" style="fill:none;stroke:black;"/>
   <text width="148" height="20" x="923" y="109" style="fill:black;" font-family="Arial" font-size="16px">resume_repas</text>
   <rect width="148" height="20" x="918" y="115" style="fill:none;stroke:black;"/>
   <text width="148" height="20" x="923" y="129" style="fill:black;" font-family="Arial" font-size="16px">timestamp_depot</text>
   <rect width="148" height="20" x="918" y="135" style="fill:none;stroke:black;"/>
   <text width="148" height="20" x="923" y="149" style="fill:black;" font-family="Arial" font-size="16px">timestamp_retrait</text>
   <rect width="148" height="20" x="918" y="155" style="fill:none;stroke:black;"/>
   <text width="148" height="20" x="923" y="169" style="fill:black;" font-family="Arial" font-size="16px">nb_portions</text>
   <rect width="148" height="20" x="918" y="175" style="fill:none;stroke:black;"/>
   <text width="148" height="20" x="923" y="189" style="fill:black;" font-family="Arial" font-size="16px">hrdebutdispo_repas</text>
   <rect width="148" height="20" x="918" y="195" style="fill:none;stroke:black;"/>
   <text width="148" height="20" x="923" y="209" style="fill:black;" font-family="Arial" font-size="16px">hrfindispo_repas</text>
   <rect width="148" height="20" x="918" y="215" style="fill:none;stroke:black;"/>
   <text width="148" height="20" x="923" y="229" style="fill:black;" font-family="Arial" font-size="16px">id_user_cuisinier</text>
   <rect width="148" height="20" x="918" y="235" style="fill:none;stroke:black;"/>
   <text width="148" height="20" x="923" y="249" style="fill:black;" font-family="Arial" font-size="16px">id_user_livreur</text>
   <rect width="148" height="20" x="453" y="192" style="fill:#007;stroke:black;"/>
   <text width="148" height="20" x="458" y="206" style="fill:#fff;" font-family="Arial" font-size="16px"> role</text>
   <rect width="148" height="20" x="453" y="212" style="fill:#aea;stroke:black;"/>
   <text width="148" height="20" x="458" y="226" style="fill:black;" font-family="Arial" font-size="16px">id_role</text>
   <rect width="148" height="20" x="453" y="232" style="fill:none;stroke:black;"/>
   <text width="148" height="20" x="458" y="246" style="fill:black;" font-family="Arial" font-size="16px">nom_role</text>
   <rect width="148" height="20" x="680" y="54" style="fill:#007;stroke:black;"/>
   <text width="148" height="20" x="685" y="68" style="fill:#fff;" font-family="Arial" font-size="16px"> user</text>
   <rect width="148" height="20" x="680" y="74" style="fill:#aea;stroke:black;"/>
   <text width="148" height="20" x="685" y="88" style="fill:black;" font-family="Arial" font-size="16px">id_user</text>
   <rect width="148" height="20" x="680" y="94" style="fill:none;stroke:black;"/>
   <text width="148" height="20" x="685" y="108" style="fill:black;" font-family="Arial" font-size="16px">nom_user</text>
   <rect width="148" height="20" x="680" y="114" style="fill:none;stroke:black;"/>
   <text width="148" height="20" x="685" y="128" style="fill:black;" font-family="Arial" font-size="16px">prenom_user</text>
   <rect width="148" height="20" x="680" y="134" style="fill:none;stroke:black;"/>
   <text width="148" height="20" x="685" y="148" style="fill:black;" font-family="Arial" font-size="16px">email</text>
   <rect width="148" height="20" x="680" y="154" style="fill:none;stroke:black;"/>
   <text width="148" height="20" x="685" y="168" style="fill:black;" font-family="Arial" font-size="16px">password</text>
   <rect width="148" height="20" x="680" y="174" style="fill:none;stroke:black;"/>
   <text width="148" height="20" x="685" y="188" style="fill:black;" font-family="Arial" font-size="16px">adresse</text>
   <rect width="148" height="20" x="680" y="194" style="fill:none;stroke:black;"/>
   <text width="148" height="20" x="685" y="208" style="fill:black;" font-family="Arial" font-size="16px">cp</text>
   <rect width="148" height="20" x="680" y="214" style="fill:none;stroke:black;"/>
   <text width="148" height="20" x="685" y="228" style="fill:black;" font-family="Arial" font-size="16px">ville</text>
   <rect width="148" height="20" x="680" y="234" style="fill:none;stroke:black;"/>
   <text width="148" height="20" x="685" y="248" style="fill:black;" font-family="Arial" font-size="16px">telephone</text>
   <rect width="148" height="20" x="680" y="254" style="fill:none;stroke:black;"/>
   <text width="148" height="20" x="685" y="268" style="fill:black;" font-family="Arial" font-size="16px">facebook</text>
   <rect width="148" height="20" x="680" y="274" style="fill:none;stroke:black;"/>
   <text width="148" height="20" x="685" y="288" style="fill:black;" font-family="Arial" font-size="16px">is_valid</text>
   <rect width="148" height="20" x="680" y="294" style="fill:none;stroke:black;"/>
   <text width="148" height="20" x="685" y="308" style="fill:black;" font-family="Arial" font-size="16px">clef</text>
   <rect width="148" height="20" x="680" y="314" style="fill:none;stroke:black;"/>
   <text width="148" height="20" x="685" y="328" style="fill:black;" font-family="Arial" font-size="16px">id_role</text>
   <rect width="148" height="20" x="459" y="56" style="fill:#007;stroke:black;"/>
   <text width="148" height="20" x="464" y="70" style="fill:#fff;" font-family="Arial" font-size="16px"> user_role</text>
   <rect width="148" height="20" x="459" y="76" style="fill:none;stroke:black;"/>
   <text width="148" height="20" x="464" y="90" style="fill:black;" font-family="Arial" font-size="16px">id_role</text>
   <rect width="148" height="20" x="459" y="96" style="fill:none;stroke:black;"/>
   <text width="148" height="20" x="464" y="110" style="fill:black;" font-family="Arial" font-size="16px">id_user</text>
</svg>
